<svg xmlns="http://www.w3.org/2000/svg" xmlns:xlink="http://www.w3.org/1999/xlink" version="1.1" x="0px" y="0px" viewBox="0 0 100 125" style="enable-background:new 0 0 100 100;" xml:space="preserve"><g><path d="M50,3.2C24.2,3.2,3.2,24.2,3.2,50c0,25.8,21,46.8,46.8,46.8c25.8,0,46.8-21,46.8-46.8C96.8,24.2,75.8,3.2,50,3.2z M50,92.8   C26.4,92.8,7.2,73.6,7.2,50S26.4,7.2,50,7.2S92.8,26.4,92.8,50S73.6,92.8,50,92.8z"/><path d="M50,13.4c-20.2,0-36.6,16.4-36.6,36.6c0,20.2,16.4,36.6,36.6,36.6S86.6,70.2,86.6,50C86.6,29.8,70.2,13.4,50,13.4z    M50,82.6C32,82.6,17.4,68,17.4,50S32,17.4,50,17.4C68,17.4,82.6,32,82.6,50S68,82.6,50,82.6z"/><path d="M50,71.8c-11.1,0-21.4-6.1-26.8-15.8c-0.2-0.4-0.8-0.6-1.2-0.4c-0.5,0.2-0.7,0.7-0.6,1.2C24.5,70.1,36.2,79.4,50,79.4   c13.8,0,25.5-9.3,28.7-22.7c0.1-0.5-0.1-1-0.6-1.2c-0.5-0.2-1,0-1.2,0.4C71.4,65.7,61.1,71.8,50,71.8z M74.1,63.2   C69.4,71.8,60.3,77.4,50,77.4s-19.4-5.6-24.1-14.2C32,69.9,40.7,73.8,50,73.8S68,69.9,74.1,63.2z"/><path d="M24.8,47.4c0.4,0.1,0.8,0.2,1.3,0.2c2,0,3.8-1.3,4.4-3.3c2-6.8,7.3-12,14.2-13.9c1.2-0.3,2.1-1.1,2.7-2.1   c0.6-1.1,0.8-2.3,0.4-3.5c-0.3-1.2-1.1-2.1-2.1-2.7c-1.1-0.6-2.3-0.7-3.4-0.4c-9.9,2.7-17.6,10.3-20.5,20.1   c-0.3,1.2-0.2,2.4,0.4,3.5C22.7,46.2,23.6,47,24.8,47.4z M23.6,42.3c2.7-9.2,9.8-16.2,19.1-18.8c0.2-0.1,0.5-0.1,0.7-0.1   c0.4,0,0.9,0.1,1.2,0.3c0.6,0.3,1,0.9,1.2,1.5c0.2,0.7,0.1,1.3-0.2,1.9c-0.3,0.6-0.9,1-1.5,1.2c-7.5,2.1-13.4,7.8-15.5,15.3   c-0.4,1.3-1.8,2.1-3.2,1.7c-0.7-0.2-1.2-0.6-1.5-1.2C23.5,43.6,23.4,42.9,23.6,42.3z"/></g><text x="0" y="115" fill="#000000" font-size="5px" font-weight="bold" font-family="'Helvetica Neue', Helvetica, Arial-Unicode, Arial, Sans-serif">Created by mikicon</text><text x="0" y="120" fill="#000000" font-size="5px" font-weight="bold" font-family="'Helvetica Neue', Helvetica, Arial-Unicode, Arial, Sans-serif">from the Noun Project</text></svg>